<?xml version="1.0" encoding="UTF-8" standalone="no"?>
<!-- Generator: Adobe Illustrator 16.0.0, SVG Export Plug-In . SVG Version: 6.00 Build 0)  -->

<svg
   xmlns:dc="http://purl.org/dc/elements/1.1/"
   xmlns:cc="http://creativecommons.org/ns#"
   xmlns:rdf="http://www.w3.org/1999/02/22-rdf-syntax-ns#"
   xmlns:svg="http://www.w3.org/2000/svg"
   xmlns="http://www.w3.org/2000/svg"
   xmlns:sodipodi="http://sodipodi.sourceforge.net/DTD/sodipodi-0.dtd"
   xmlns:inkscape="http://www.inkscape.org/namespaces/inkscape"
   version="1.1"
   id="Capa_1"
   x="0px"
   y="0px"
   width="18"
   height="18"
   viewBox="0 0 401.998 401.998"
   style="enable-background:new 0 0 401.998 401.998;"
   xml:space="preserve"
   sodipodi:docname="padlock_icon-icons.com_73471.svg"
   inkscape:version="0.92.3 (2405546, 2018-03-11)"><metadata
   id="metadata41"><rdf:RDF><cc:Work
       rdf:about=""><dc:format>image/svg+xml</dc:format><dc:type
         rdf:resource="http://purl.org/dc/dcmitype/StillImage" /></cc:Work></rdf:RDF></metadata><defs
   id="defs39" /><sodipodi:namedview
   pagecolor="#ffffff"
   bordercolor="#666666"
   borderopacity="1"
   objecttolerance="10"
   gridtolerance="10"
   guidetolerance="10"
   inkscape:pageopacity="0"
   inkscape:pageshadow="2"
   inkscape:window-width="2560"
   inkscape:window-height="1017"
   id="namedview37"
   showgrid="false"
   inkscape:zoom="0.58706762"
   inkscape:cx="115.82993"
   inkscape:cy="200.99899"
   inkscape:window-x="1920"
   inkscape:window-y="30"
   inkscape:window-maximized="1"
   inkscape:current-layer="Capa_1" />
<g
   id="g4"
   style="fill:#5e5e5e;fill-opacity:1">
	<path
   d="M357.45,190.721c-5.331-5.33-11.8-7.993-19.417-7.993h-9.131v-54.821c0-35.022-12.559-65.093-37.685-90.218   C266.093,12.563,236.025,0,200.998,0c-35.026,0-65.1,12.563-90.222,37.688C85.65,62.814,73.091,92.884,73.091,127.907v54.821   h-9.135c-7.611,0-14.084,2.663-19.414,7.993c-5.33,5.326-7.994,11.799-7.994,19.417V374.59c0,7.611,2.665,14.086,7.994,19.417   c5.33,5.325,11.803,7.991,19.414,7.991H338.04c7.617,0,14.085-2.663,19.417-7.991c5.325-5.331,7.994-11.806,7.994-19.417V210.135   C365.455,202.523,362.782,196.051,357.45,190.721z M274.087,182.728H127.909v-54.821c0-20.175,7.139-37.402,21.414-51.675   c14.277-14.275,31.501-21.411,51.678-21.411c20.179,0,37.399,7.135,51.677,21.411c14.271,14.272,21.409,31.5,21.409,51.675V182.728   z"
   id="path2"
   style="fill:#5e5e5e;fill-opacity:1" />
</g>
</svg>
